<svg id="Layer_1" data-name="Layer 1" xmlns="http://www.w3.org/2000/svg" viewBox="0 0 795.77 583.3"><defs><style>.cls-1{fill:#8a30b5;stroke:#000;stroke-miterlimit:10;stroke-width:20px;}.cls-2{fill:#edc2ff;}.cls-3{fill:none;}.cls-4{fill:#642187;}</style></defs><path class="cls-1" d="M889.73,417.67A175,175,0,0,0,580.32,283.42c-.41-1,.43,1,0,0l16,59-69.15,90.3,63.35,132L507.18,684.34l18.53,84.74C630.69,759.61,876.93,509.31,889.73,417.67Z" transform="translate(-105.66 -208.46)"/><path class="cls-1" d="M514.89,563.34l-98-108.83,40.92-106.13-34-54.47A175,175,0,0,0,117.56,433.08c14.14,95.61,284.42,362.28,380,348.14a57.33,57.33,0,0,0,12.69-3.53L468.62,701.6Z" transform="translate(-105.66 -208.46)"/><path class="cls-2" d="M150.69,401.33c-21.75-27-2.48-78.65,43.06-115.31s100.09-44.49,121.83-17.47S270.51,288.14,225,324.8,172.45,428.34,150.69,401.33Z" transform="translate(-105.66 -208.46)"/><path class="cls-2" d="M166.46,423.17c14.21-5.84,13,8.13,18.84,22.35s5.7,45.83-1.27,48.13c-5.79,1.92-26.9-19.95-32.75-34.16A27.84,27.84,0,0,1,166.46,423.17Z" transform="translate(-105.66 -208.46)"/><path class="cls-3" d="M468,452.5l28.94,43.59c-.59-35.92-.92-68.77-1-92.93Z" transform="translate(-105.66 -208.46)"/><path class="cls-4" d="M727.89,562.46c-80,91.91-194,195.06-194,195.06s93.56,33.58,315.58-273.19C927.89,375.9,835.3,278.54,835.3,278.54S816.74,460.33,727.89,562.46Z" transform="translate(-105.66 -208.46)"/></svg>