<svg id="Layer_1" data-name="Layer 1" xmlns="http://www.w3.org/2000/svg" viewBox="0 0 670 595"><defs><style>.cls-1{fill:#ff168b;stroke:#fff;stroke-miterlimit:10;stroke-width:20px;}.cls-2{fill:#c4066f;}.cls-3{fill:#ffc0d4;}</style></defs><path class="cls-1" d="M650,212.5a174.91,174.91,0,0,0-150,84.82A175,175,0,0,0,175,387.5c0,96.65,228.35,400,325,400s325-303.35,325-400A175,175,0,0,0,650,212.5Z" transform="translate(-165 -202.5)"/><path class="cls-2" d="M804.57,386.76c0,85.23-208.46,364.11-293.7,364.11-10.87,0-15-278.88-15-364.11a154.33,154.33,0,0,1,308.66,0Z" transform="translate(-165 -202.5)"/><path class="cls-3" d="M212.42,360.94c-17.56-29.91,9.06-78.16,59.47-107.77s105.52-29.36,123.08.55S347.51,266.5,297.1,296.1,230,390.85,212.42,360.94Z" transform="translate(-165 -202.5)"/><path class="cls-3" d="M224.83,384.86c14.91-3.7,11.67,9.94,15.36,24.86s-1.06,46.17-8.3,47.43c-6,1.05-23.69-23.67-27.39-38.59A27.83,27.83,0,0,1,224.83,384.86Z" transform="translate(-165 -202.5)"/></svg>